<svg width="659" height="465" viewBox="0 0 659 465" fill="none" xmlns="http://www.w3.org/2000/svg">
<path d="M23.5723 465C10.5542 465 0.00101673 454.926 0.00101782 442.5C0.00101816 438.594 1.04472 434.921 2.87895 431.72C1.06688 428.385 0.0371522 424.563 0.0371526 420.5C0.037153 415.655 1.50303 411.154 4.01274 407.411L4.01274 396.59C1.50273 392.847 0.0371554 388.345 0.0371558 383.5C0.0371562 378.655 1.50298 374.154 4.01274 370.411L4.01274 359.591C1.50249 355.848 0.0361821 351.345 0.0361825 346.5C0.036244 341.655 1.50274 337.154 4.01275 333.411L4.01275 322.59C1.50274 318.847 0.0371619 314.345 0.0371623 309.5C0.0372238 304.655 1.50304 300.154 4.01275 296.411L4.01275 285.59C1.50274 281.847 0.0371651 277.345 0.0371655 272.5C0.037227 267.655 1.50305 263.154 4.01275 259.411L4.01275 248.59C1.50274 244.847 0.0371684 240.345 0.0371688 235.5C0.0371692 230.655 1.50299 226.154 4.01276 222.411L4.01276 211.591C1.50287 207.848 0.0371716 203.345 0.037172 198.5C0.0372335 193.655 1.50305 189.154 4.01276 185.411L4.01276 174.59C1.50275 170.847 0.0371749 166.345 0.0371753 161.5C0.0372368 156.655 1.50306 152.154 4.01276 148.411L4.01276 137.59C1.50312 133.847 0.0381547 129.345 0.0381551 124.5C0.0382166 119.656 1.50361 115.155 4.01277 111.412L4.01277 100.592C1.50233 96.8488 0.0362658 92.3465 0.0362052 87.501C0.0362057 82.6558 1.50258 78.154 4.01277 74.4112L4.01277 63.5918C1.5027 59.8488 0.0373067 55.3463 0.037185 50.501C0.0371854 46.6992 0.940323 43.1084 2.54109 39.9297C0.917069 36.1967 0.000138324 31.9738 7.76815e-05 27.501C7.8198e-05 21.6165 1.5862 16.1647 4.28426 11.6924C5.04933 8.45599 7.38436 5.82971 10.4434 4.66019C14.1956 1.7189 18.7111 0.00110066 23.5714 0.00100954C27.7703 0.00100991 31.7124 1.28318 35.127 3.52835C39.1228 1.28333 43.7351 9.57808e-05 48.6485 3.51769e-05C53.8979 3.56377e-05 58.8043 1.46314 62.9815 4.00101L72.4366 4.00101C76.6124 1.46436 81.5161 0.00107566 86.7637 0.00101508C92.0119 0.00101555 96.9165 1.46418 101.093 4.00102L110.55 4.00102C114.726 1.46418 119.631 0.00101797 124.879 0.00101843C130.127 0.00104941 135.032 1.46409 139.209 4.00102L148.666 4.00102C152.842 1.46419 157.747 0.00108235 162.995 0.00102178C168.245 0.00102224 173.152 1.46303 177.329 4.00102L182.363 4.00102C185.781 1.46346 189.794 0.00102413 194.089 0.00102451C198.383 0.0010554 202.395 1.46456 205.812 4.00103L205.955 4.00103C210.105 1.49608 214.968 0.0537912 220.168 0.0537612C225.368 0.0537616 230.231 1.49614 234.381 4.00103L243.07 4.00103C247.22 1.49624 252.082 0.053764 257.282 0.0537644C262.483 0.0538259 267.346 1.49618 271.495 4.00103L280.183 4.00103C284.332 1.49624 289.194 0.0537672 294.395 0.0537677C299.595 0.0537681 304.458 1.49615 308.607 4.00103L317.295 4.00104C321.444 1.49624 326.307 0.0537705 331.507 0.0537709C336.707 0.0537714 341.57 1.49615 345.72 4.00104L354.407 4.00104C358.556 1.49628 363.419 0.0538043 368.619 0.0537742C373.819 0.0537747 378.682 1.49625 382.831 4.00104L391.521 4.00104C395.669 1.49637 400.532 0.0538686 405.732 0.0537775C410.932 0.0537779 415.794 1.49625 419.943 4.00104L428.633 4.00104C432.782 1.49625 437.645 0.0537803 442.845 0.0537807C448.045 0.0538422 452.908 1.49619 457.058 4.00105L465.745 4.00105C469.894 1.49629 474.757 0.0537835 479.957 0.053784C485.157 0.0538455 490.021 1.49617 494.17 4.00105L502.859 4.00105C507.008 1.49638 511.871 0.0538783 517.07 0.0537872C522.271 0.0537877 527.134 1.4962 531.283 4.00105L539.971 4.00105C544.12 1.49636 548.982 0.05379 554.182 0.0537905C559.382 0.0537909 564.245 1.49617 568.395 4.00106L577.084 4.00106C581.233 1.49627 586.096 0.0537933 591.296 0.0537937C594.615 0.053794 597.797 0.640739 600.744 1.71688C603.737 0.607994 606.974 8.41847e-05 610.354 8.44813e-05C615.267 0.000145948 619.879 1.28338 623.875 3.52841C627.289 1.28393 631.23 0.00112391 635.428 0.00106324C648.446 0.00106439 658.999 12.3133 658.999 27.5011C658.999 31.9733 658.085 36.1962 656.461 39.9288C658.062 43.1074 658.964 46.6983 658.964 50.5001C658.964 57.0465 656.291 62.969 651.978 67.2354L651.978 70.7677C656.291 75.0337 658.964 80.9544 658.964 87.5001C658.964 94.046 656.291 99.9673 651.978 104.233L651.978 107.768C656.291 112.034 658.964 117.954 658.964 124.5C658.964 131.046 656.291 136.969 651.978 141.235L651.978 144.768C656.291 149.034 658.964 154.954 658.964 161.5C658.964 168.046 656.291 173.967 651.978 178.233L651.978 181.768C656.291 186.034 658.964 191.954 658.964 198.5C658.964 205.046 656.291 210.968 651.978 215.234L651.978 218.769C656.29 223.035 658.964 228.955 658.964 235.5C658.964 242.046 656.291 247.968 651.978 252.234L651.978 255.769C656.291 260.035 658.964 265.955 658.964 272.501C658.964 279.047 656.291 284.969 651.978 289.235L651.978 292.77C656.29 297.036 658.963 302.956 658.963 309.501C658.963 316.047 656.29 321.968 651.978 326.234L651.978 329.769C656.29 334.035 658.964 339.955 658.964 346.5C658.964 353.046 656.291 358.969 651.978 363.235L651.978 366.768C656.291 371.034 658.964 376.955 658.964 383.501C658.964 390.047 656.291 395.969 651.978 400.235L651.978 403.768C656.291 408.034 658.964 413.954 658.964 420.5C658.964 424.563 657.936 428.386 656.124 431.721C657.958 434.922 659 438.595 659 442.5C659 454.926 648.447 465 635.429 465C629.816 465 624.662 463.126 620.614 460L618.189 460C613.703 463.149 608.233 465 602.329 465C598.949 465 595.711 464.393 592.718 463.283C589.771 464.359 586.589 464.946 583.27 464.946C577.412 464.946 571.983 463.117 567.52 460L561.908 460C557.444 463.117 552.015 464.946 546.157 464.946C540.3 464.946 534.871 463.117 530.407 460L524.796 460C520.332 463.117 514.902 464.946 509.045 464.946C503.188 464.946 497.758 463.117 493.295 460L487.684 460C483.22 463.117 477.791 464.946 471.934 464.946C466.076 464.946 460.647 463.117 456.184 460L450.57 460C446.107 463.117 440.677 464.946 434.819 464.946C428.963 464.946 423.534 463.117 419.07 460L413.459 460C408.996 463.117 403.566 464.946 397.709 464.946C391.852 464.946 386.423 463.117 381.959 460L376.346 460C371.882 463.117 366.452 464.946 360.595 464.946C354.738 464.946 349.309 463.117 344.846 460L339.234 460C334.771 463.117 329.341 464.946 323.483 464.946C317.626 464.946 312.197 463.117 307.733 460L302.12 460C297.657 463.117 292.227 464.946 286.37 464.946C280.513 464.946 275.084 463.117 270.621 460L265.008 460C260.544 463.117 255.115 464.946 249.258 464.946C243.401 464.946 237.971 463.117 233.508 460L227.895 460C223.431 463.117 218.002 464.946 212.145 464.946C206.912 464.946 202.021 463.487 197.855 460.953C194.423 463.519 190.387 465 186.065 465C181.235 465 176.761 463.149 173.091 460L166.819 460C162.333 463.149 156.863 465 150.959 465C145.408 465 140.241 463.364 135.914 460.551C131.587 463.364 126.419 465 120.867 465C115.1 465 109.747 463.235 105.32 460.218C100.894 463.235 95.5405 465 89.7735 465C84.0065 465 78.6534 463.235 74.2266 460.218C69.7997 463.235 64.446 465 58.6787 465C52.7747 465 47.3048 463.149 42.8184 460L38.3868 460C34.3387 463.126 29.185 465 23.5723 465Z" fill="#EBEDEF" fill-opacity="1"/>
</svg>
